<?xml version="1.0" encoding="iso-8859-1"?>
<!-- Generator: Adobe Illustrator 19.0.0, SVG Export Plug-In . SVG Version: 6.00 Build 0)  -->
<svg version="1.1" id="Capa_1" xmlns="http://www.w3.org/2000/svg" xmlns:xlink="http://www.w3.org/1999/xlink" x="0px" y="0px"
	 viewBox="0 0 119.713 119.713" style="enable-background:new 0 0 119.713 119.713;" xml:space="preserve">
<g>
	<path d="M33.92,71.21c-2.479-0.827-5.128-1.281-7.887-1.281c-13.744,0-24.89,11.14-24.89,24.889c0,2.831,0.479,5.549,1.35,8.085
		l16.865-16.865l15.915,15.915l-16.64,16.641c2.338,0.728,4.823,1.116,7.401,1.119c13.748,0,24.891-11.146,24.891-24.892
		c0-3.388-0.677-6.615-1.905-9.56l36.773-36.758c2.478,0.827,5.128,1.281,7.886,1.281c13.744,0,24.891-11.142,24.891-24.89
		c0-2.831-0.479-5.548-1.35-8.084l-16.865,16.865L84.439,17.759l16.641-16.64C98.742,0.392,96.257,0.001,93.679,0
		C79.931,0,68.788,11.144,68.788,24.891c0,3.388,0.677,6.615,1.905,9.559L33.92,71.21z"/>
</g>
<g>
</g>
<g>
</g>
<g>
</g>
<g>
</g>
<g>
</g>
<g>
</g>
<g>
</g>
<g>
</g>
<g>
</g>
<g>
</g>
<g>
</g>
<g>
</g>
<g>
</g>
<g>
</g>
<g>
</g>
</svg>
